<svg width="43" height="42" viewBox="0 0 43 42" fill="none" xmlns="http://www.w3.org/2000/svg">
<path d="M13.0264 33.6C10.7043 33.6 8.82549 35.49 8.82549 37.8C8.82549 40.11 10.7043 42 13.0264 42C15.3485 42 17.2484 40.11 17.2484 37.8C17.2484 35.49 15.3485 33.6 13.0264 33.6ZM0.360352 0V4.2H4.58237L12.182 20.139L9.33213 25.284C8.99437 25.872 8.80438 26.565 8.80438 27.3C8.80438 29.61 10.7043 31.5 13.0264 31.5H38.3585V27.3H13.913C13.6175 27.3 13.3853 27.069 13.3853 26.775L13.4486 26.523L15.3485 23.1H31.0755C32.6588 23.1 34.052 22.239 34.7698 20.937L42.3272 7.308C42.4961 7.014 42.5805 6.657 42.5805 6.3C42.5805 5.145 41.6306 4.2 40.4695 4.2H9.24769L7.26335 0H0.360352ZM34.1365 33.6C31.8144 33.6 29.9356 35.49 29.9356 37.8C29.9356 40.11 31.8144 42 34.1365 42C36.4586 42 38.3585 40.11 38.3585 37.8C38.3585 35.49 36.4586 33.6 34.1365 33.6Z" fill="black"/>
</svg>
