<svg width="45" height="45" viewBox="0 0 45 45" fill="none" xmlns="http://www.w3.org/2000/svg">
<g clip-path="url(#clip0_20_192)">
<path d="M44.2238 22.5671C44.2238 10.5158 34.4543 0.746216 22.4029 0.746216C10.3516 0.746216 0.582031 10.5158 0.582031 22.5671C0.582031 33.4584 8.56157 42.4859 18.9934 44.1229V28.8747H13.4529V22.5671H18.9934V17.7597C18.9934 12.2908 22.2512 9.27 27.2355 9.27C29.6221 9.27 32.12 9.69619 32.12 9.69619V15.0662H29.3686C26.658 15.0662 25.8124 16.7483 25.8124 18.4757V22.5671H31.8643L30.8969 28.8747H25.8124V44.1229C36.2443 42.4859 44.2238 33.4584 44.2238 22.5671Z" fill="white"/>
</g>
<defs>
<clipPath id="clip0_20_192">
<rect width="43.6418" height="43.6418" fill="white" transform="translate(0.582031 0.746216)"/>
</clipPath>
</defs>
</svg>
