<svg width="44" height="45" viewBox="0 0 44 45" fill="none" xmlns="http://www.w3.org/2000/svg">
<g clip-path="url(#clip0_20_194)">
<path d="M21.8209 4.67568C27.6512 4.67568 28.3416 4.70125 30.6345 4.80354C32.7654 4.8973 33.9161 5.2553 34.6833 5.55363C35.6976 5.94572 36.4307 6.42306 37.1893 7.18167C37.9564 7.94881 38.4252 8.67334 38.8173 9.68766C39.1156 10.4548 39.4736 11.614 39.5674 13.7365C39.6697 16.0379 39.6953 16.7283 39.6953 22.5501C39.6953 28.3803 39.6697 29.0708 39.5674 31.3636C39.4736 33.4946 39.1156 34.6453 38.8173 35.4124C38.4252 36.4268 37.9479 37.1598 37.1893 37.9184C36.4221 38.6856 35.6976 39.1544 34.6833 39.5465C33.9161 39.8448 32.7569 40.2028 30.6345 40.2966C28.3331 40.3989 27.6426 40.4244 21.8209 40.4244C15.9906 40.4244 15.3002 40.3989 13.0073 40.2966C10.8763 40.2028 9.72564 39.8448 8.9585 39.5465C7.94417 39.1544 7.21112 38.6771 6.4525 37.9184C5.68536 37.1513 5.21656 36.4268 4.82446 35.4124C4.52613 34.6453 4.16813 33.4861 4.07437 31.3636C3.97208 29.0622 3.94651 28.3718 3.94651 22.5501C3.94651 16.7198 3.97208 16.0294 4.07437 13.7365C4.16813 11.6055 4.52613 10.4548 4.82446 9.68766C5.21656 8.67334 5.69389 7.94029 6.4525 7.18167C7.21965 6.41453 7.94417 5.94572 8.9585 5.55363C9.72564 5.2553 10.8849 4.8973 13.0073 4.80354C15.3002 4.70125 15.9906 4.67568 21.8209 4.67568ZM21.8209 0.746216C15.8969 0.746216 15.1553 0.771787 12.8283 0.874073C10.5098 0.976358 8.91588 1.3514 7.53503 1.8884C6.09451 2.45097 4.8756 3.19254 3.66523 4.41144C2.44633 5.62182 1.70476 6.84072 1.14219 8.27272C0.605189 9.66209 0.230142 11.2475 0.127857 13.566C0.0255714 15.9015 0 16.6431 0 22.5671C0 28.4911 0.0255714 29.2327 0.127857 31.5597C0.230142 33.8782 0.605189 35.4721 1.14219 36.853C1.70476 38.2935 2.44633 39.5124 3.66523 40.7228C4.8756 41.9331 6.09451 42.6832 7.5265 43.2373C8.91588 43.7743 10.5013 44.1493 12.8198 44.2516C15.1468 44.3539 15.8883 44.3795 21.8124 44.3795C27.7364 44.3795 28.478 44.3539 30.805 44.2516C33.1234 44.1493 34.7174 43.7743 36.0982 43.2373C37.5302 42.6832 38.7491 41.9331 39.9595 40.7228C41.1699 39.5124 41.92 38.2935 42.474 36.8615C43.011 35.4721 43.3861 33.8867 43.4883 31.5682C43.5906 29.2412 43.6162 28.4997 43.6162 22.5756C43.6162 16.6516 43.5906 15.91 43.4883 13.583C43.3861 11.2646 43.011 9.67062 42.474 8.28976C41.937 6.84072 41.1954 5.62182 39.9765 4.41144C38.7662 3.20107 37.5473 2.45097 36.1153 1.89693C34.7259 1.35993 33.1405 0.984882 30.822 0.882596C28.4865 0.771787 27.7449 0.746216 21.8209 0.746216Z" fill="white"/>
<path d="M21.8208 11.3583C15.6326 11.3583 10.6121 16.3788 10.6121 22.5671C10.6121 28.7553 15.6326 33.7758 21.8208 33.7758C28.0091 33.7758 33.0296 28.7553 33.0296 22.5671C33.0296 16.3788 28.0091 11.3583 21.8208 11.3583ZM21.8208 29.8378C17.8061 29.8378 14.55 26.5818 14.55 22.5671C14.55 18.5524 17.8061 15.2963 21.8208 15.2963C25.8355 15.2963 29.0916 18.5524 29.0916 22.5671C29.0916 26.5818 25.8355 29.8378 21.8208 29.8378Z" fill="white"/>
<path d="M36.0898 10.915C36.0898 12.3641 34.9135 13.5318 33.473 13.5318C32.024 13.5318 30.8562 12.3555 30.8562 10.915C30.8562 9.46598 32.0325 8.29822 33.473 8.29822C34.9135 8.29822 36.0898 9.4745 36.0898 10.915Z" fill="white"/>
</g>
<defs>
<clipPath id="clip0_20_194">
<rect width="43.6418" height="43.6418" fill="white" transform="translate(0 0.746216)"/>
</clipPath>
</defs>
</svg>
