<svg width="35" height="35" viewBox="0 0 35 35" fill="none" xmlns="http://www.w3.org/2000/svg">
<g clip-path="url(#clip0_20_195)">
<path fill-rule="evenodd" clip-rule="evenodd" d="M34.1192 17.5671C34.1192 26.7828 26.6484 34.2536 17.4327 34.2536C8.21692 34.2536 0.746094 26.7828 0.746094 17.5671C0.746094 8.35132 8.21692 0.880493 17.4327 0.880493C26.6484 0.880493 34.1192 8.35132 34.1192 17.5671ZM18.0306 13.1992C16.4076 13.8743 13.1639 15.2715 8.29939 17.3909C7.50948 17.705 7.09569 18.0123 7.05802 18.3128C6.99436 18.8206 7.63029 19.0206 8.49627 19.2929C8.61406 19.3299 8.73611 19.3683 8.86124 19.409C9.71322 19.6859 10.8593 20.0099 11.4551 20.0228C11.9955 20.0345 12.5987 19.8117 13.2647 19.3544C17.8097 16.2864 20.1559 14.7356 20.3032 14.7022C20.4071 14.6786 20.5511 14.649 20.6487 14.7357C20.7462 14.8224 20.7366 14.9866 20.7263 15.0307C20.6633 15.2993 18.167 17.6201 16.8752 18.821C16.4725 19.1954 16.1868 19.461 16.1284 19.5217C15.9976 19.6575 15.8643 19.786 15.7362 19.9096C14.9446 20.6726 14.3511 21.2448 15.769 22.1792C16.4504 22.6282 16.9957 22.9996 17.5397 23.37C18.1337 23.7746 18.7263 24.1781 19.4929 24.6806C19.6882 24.8087 19.8748 24.9416 20.0565 25.0712C20.7478 25.564 21.3689 26.0069 22.1363 25.9362C22.5822 25.8952 23.0428 25.4759 23.2767 24.2255C23.8295 21.2703 24.9161 14.8672 25.1672 12.2287C25.1892 11.9975 25.1615 11.7017 25.1393 11.5718C25.117 11.4419 25.0706 11.2569 24.9018 11.1199C24.7019 10.9577 24.3932 10.9235 24.2552 10.9259C23.6276 10.937 22.6647 11.2718 18.0306 13.1992Z" fill="white"/>
</g>
<defs>
<clipPath id="clip0_20_195">
<rect width="33.3731" height="33.3731" fill="white" transform="translate(0.746094 0.880493)"/>
</clipPath>
</defs>
</svg>
