<svg width="44" height="45" viewBox="0 0 44 45" fill="none" xmlns="http://www.w3.org/2000/svg">
<g clip-path="url(#clip0_20_193)">
<path d="M13.8933 40.2967C30.3579 40.2967 39.3658 26.6527 39.3658 14.8242C39.3658 14.4406 39.3573 14.0485 39.3402 13.665C41.0925 12.3977 42.6048 10.8281 43.8058 9.02973C42.1739 9.75582 40.4411 10.23 38.6668 10.4362C40.535 9.31633 41.9338 7.55713 42.604 5.48469C40.8465 6.52625 38.9245 7.26099 36.9203 7.6574C35.57 6.22259 33.7846 5.27257 31.8401 4.95423C29.8957 4.63589 27.9006 4.96696 26.1632 5.89625C24.4258 6.82554 23.0429 8.30129 22.2283 10.0953C21.4138 11.8894 21.2129 13.9018 21.6568 15.8215C18.0981 15.6429 14.6166 14.7184 11.4382 13.1081C8.25966 11.4977 5.45507 9.23728 3.2062 6.47345C2.06321 8.4441 1.71345 10.776 2.22801 12.9953C2.74257 15.2146 4.08284 17.1546 5.97643 18.4212C4.55484 18.3761 3.16439 17.9934 1.91996 17.3046V17.4154C1.91869 19.4835 2.63364 21.4882 3.94328 23.0887C5.25291 24.6892 7.07642 25.7868 9.10381 26.1949C7.78693 26.5552 6.4048 26.6077 5.06439 26.3484C5.63648 28.1269 6.74956 29.6825 8.24828 30.7979C9.74701 31.9134 11.5566 32.5332 13.4245 32.5707C10.2534 35.0617 6.33605 36.4128 2.30353 36.4064C1.5884 36.4053 0.873967 36.3615 0.164062 36.2752C4.26067 38.9033 9.02613 40.2992 13.8933 40.2967Z" fill="white"/>
</g>
<defs>
<clipPath id="clip0_20_193">
<rect width="43.6418" height="43.6418" fill="white" transform="translate(0.164062 0.746216)"/>
</clipPath>
</defs>
</svg>
