<svg width="32" height="31" viewBox="0 0 32 31" fill="none" xmlns="http://www.w3.org/2000/svg">
<path d="M22.9716 19.4969H21.564L21.0651 19.0183C22.8112 16.9977 23.8625 14.3745 23.8625 11.5209C23.8625 5.1578 18.6776 0 12.2812 0C5.88479 0 0.699951 5.1578 0.699951 11.5209C0.699951 17.8839 5.88479 23.0417 12.2812 23.0417C15.1498 23.0417 17.7868 21.996 19.8179 20.259L20.299 20.7553V22.1555L29.2077 31L31.8624 28.3591L22.9716 19.4969ZM12.2812 19.4969C7.8447 19.4969 4.26342 15.9342 4.26342 11.5209C4.26342 7.10749 7.8447 3.54488 12.2812 3.54488C16.7177 3.54488 20.299 7.10749 20.299 11.5209C20.299 15.9342 16.7177 19.4969 12.2812 19.4969Z" fill="white"/>
</svg>
